HIERARCHY
ROOT Hips
{
	OFFSET -339.306915 540.749023 89.171944
	CHANNELS 6 Xposition Yposition Zposition Zrotation Yrotation Xrotation
	JOINT Spine
	{
		OFFSET 0.000000 2.080078 8.814247
		CHANNELS 6 Xposition Yposition Zposition Zrotation Yrotation Xrotation
		JOINT Spine1
		{
			OFFSET 0.000000 0.000000 8.844139
			CHANNELS 6 Xposition Yposition Zposition Zrotation Yrotation Xrotation
			JOINT Spine2
			{
				OFFSET 0.000000 0.000000 11.682266
				CHANNELS 6 Xposition Yposition Zposition Zrotation Yrotation Xrotation
				JOINT Spine3
				{
					OFFSET 0.000000 0.000000 11.746696
					CHANNELS 6 Xposition Yposition Zposition Zrotation Yrotation Xrotation
					JOINT Neck
					{
						OFFSET 0.000000 0.000000 17.658264
						CHANNELS 6 Xposition Yposition Zposition Zrotation Yrotation Xrotation
						JOINT Neck1
						{
							OFFSET 0.000000 0.000000 5.101517
							CHANNELS 6 Xposition Yposition Zposition Zrotation Yrotation Xrotation
							JOINT Head
							{
								OFFSET 0.000000 0.000000 5.101517
								CHANNELS 6 Xposition Yposition Zposition Zrotation Yrotation Xrotation
								JOINT HeadEnd
								{
									OFFSET 0.000000 0.000000 11.655090
									CHANNELS 6 Xposition Yposition Zposition Zrotation Yrotation Xrotation
									End Site
									{
										OFFSET 0.000000 0.000000 0.100006
									}
								}
							}
						}
					}
					JOINT RightShoulder
					{
						OFFSET -2.625397 0.000000 11.175217
						CHANNELS 6 Xposition Yposition Zposition Zrotation Yrotation Xrotation
						JOINT RightArm
						{
							OFFSET 0.000000 0.000000 10.434708
							CHANNELS 6 Xposition Yposition Zposition Zrotation Yrotation Xrotation
							JOINT RightForeArm
							{
								OFFSET 0.000000 0.000000 29.628418
								CHANNELS 6 Xposition Yposition Zposition Zrotation Yrotation Xrotation
								JOINT RightHand
								{
									OFFSET 0.000000 0.000000 22.857605
									CHANNELS 6 Xposition Yposition Zposition Zrotation Yrotation Xrotation
									JOINT RightHandThumb1
									{
										OFFSET -2.867310 -2.944275 3.959564
										CHANNELS 6 Xposition Yposition Zposition Zrotation Yrotation Xrotation
										JOINT RightHandThumb2
										{
											OFFSET 0.000000 0.000000 3.350403
											CHANNELS 6 Xposition Yposition Zposition Zrotation Yrotation Xrotation
											JOINT RightHandThumb3
											{
												OFFSET 0.000000 0.000000 3.756516
												CHANNELS 6 Xposition Yposition Zposition Zrotation Yrotation Xrotation
												JOINT RightHandThumb4
												{
													OFFSET 0.000000 0.000000 3.147339
													CHANNELS 6 Xposition Yposition Zposition Zrotation Yrotation Xrotation
													End Site
													{
														OFFSET 0.000000 0.000000 0.100006
													}
												}
											}
										}
									}
									JOINT RightHandIndex1
									{
										OFFSET -0.086761 -2.345276 10.030899
										CHANNELS 6 Xposition Yposition Zposition Zrotation Yrotation Xrotation
										JOINT RightHandIndex2
										{
											OFFSET 0.000000 0.000000 4.061096
											CHANNELS 6 Xposition Yposition Zposition Zrotation Yrotation Xrotation
											JOINT RightHandIndex3
											{
												OFFSET 0.000000 0.000000 3.248871
												CHANNELS 6 Xposition Yposition Zposition Zrotation Yrotation Xrotation
												JOINT RightHandIndex4
												{
													OFFSET 0.000000 0.000000 2.639709
													CHANNELS 6 Xposition Yposition Zposition Zrotation Yrotation Xrotation
													End Site
													{
														OFFSET 0.000000 0.000000 0.100006
													}
												}
											}
										}
									}
									JOINT RightHandMiddle1
									{
										OFFSET 0.104095 -0.006775 9.502945
										CHANNELS 6 Xposition Yposition Zposition Zrotation Yrotation Xrotation
										JOINT RightHandMiddle2
										{
											OFFSET 0.000000 0.000000 4.568726
											CHANNELS 6 Xposition Yposition Zposition Zrotation Yrotation Xrotation
											JOINT RightHandMiddle3
											{
												OFFSET 0.000000 0.000000 3.654984
												CHANNELS 6 Xposition Yposition Zposition Zrotation Yrotation Xrotation
												JOINT RightHandMiddle4
												{
													OFFSET 0.000000 0.000000 2.741241
													CHANNELS 6 Xposition Yposition Zposition Zrotation Yrotation Xrotation
													End Site
													{
														OFFSET 0.000000 0.000000 0.100006
													}
												}
											}
										}
									}
									JOINT RightHandRing1
									{
										OFFSET 0.086761 2.267456 8.921707
										CHANNELS 6 Xposition Yposition Zposition Zrotation Yrotation Xrotation
										JOINT RightHandRing2
										{
											OFFSET 0.000000 0.000000 4.061096
											CHANNELS 6 Xposition Yposition Zposition Zrotation Yrotation Xrotation
											JOINT RightHandRing3
											{
												OFFSET 0.000000 0.000000 3.654984
												CHANNELS 6 Xposition Yposition Zposition Zrotation Yrotation Xrotation
												JOINT RightHandRing4
												{
													OFFSET 0.000000 0.000000 2.741241
													CHANNELS 6 Xposition Yposition Zposition Zrotation Yrotation Xrotation
													End Site
													{
														OFFSET 0.000000 0.000000 0.100006
													}
												}
											}
										}
									}
									JOINT RightHandPinky1
									{
										OFFSET -0.173492 4.467224 7.976990
										CHANNELS 6 Xposition Yposition Zposition Zrotation Yrotation Xrotation
										JOINT RightHandPinky2
										{
											OFFSET 0.000000 0.000000 3.350403
											CHANNELS 6 Xposition Yposition Zposition Zrotation Yrotation Xrotation
											JOINT RightHandPinky3
											{
												OFFSET 0.000000 0.000000 2.842758
												CHANNELS 6 Xposition Yposition Zposition Zrotation Yrotation Xrotation
												JOINT RightHandPinky4
												{
													OFFSET 0.000000 0.000000 2.639709
													CHANNELS 6 Xposition Yposition Zposition Zrotation Yrotation Xrotation
													End Site
													{
														OFFSET 0.000000 0.000000 0.100006
													}
												}
											}
										}
									}
									JOINT RightForeArmEnd
									{
										OFFSET 0.000000 0.000000 0.000000
										CHANNELS 6 Xposition Yposition Zposition Zrotation Yrotation Xrotation
										End Site
										{
											OFFSET 0.000000 0.000000 0.100006
										}
									}
								}
								JOINT RightArmEnd
								{
									OFFSET 0.000000 0.000000 0.000000
									CHANNELS 6 Xposition Yposition Zposition Zrotation Yrotation Xrotation
									End Site
									{
										OFFSET 0.000000 0.000000 0.100006
									}
								}
							}
						}
					}
					JOINT LeftShoulder
					{
						OFFSET 2.625397 0.000000 11.175217
						CHANNELS 6 Xposition Yposition Zposition Zrotation Yrotation Xrotation
						JOINT LeftArm
						{
							OFFSET 0.000000 0.000000 10.813629
							CHANNELS 6 Xposition Yposition Zposition Zrotation Yrotation Xrotation
							JOINT LeftForeArm
							{
								OFFSET 0.000000 0.000000 28.724777
								CHANNELS 6 Xposition Yposition Zposition Zrotation Yrotation Xrotation
								JOINT LeftHand
								{
									OFFSET 0.644379 0.328857 25.716171
									CHANNELS 6 Xposition Yposition Zposition Zrotation Yrotation Xrotation
									JOINT LeftHandThumb1
									{
										OFFSET 2.867310 -2.944275 3.959564
										CHANNELS 6 Xposition Yposition Zposition Zrotation Yrotation Xrotation
										JOINT LeftHandThumb2
										{
											OFFSET 0.000000 0.000000 3.350403
											CHANNELS 6 Xposition Yposition Zposition Zrotation Yrotation Xrotation
											JOINT LeftHandThumb3
											{
												OFFSET 0.000000 0.000000 3.756516
												CHANNELS 6 Xposition Yposition Zposition Zrotation Yrotation Xrotation
												JOINT LeftHandThumb4
												{
													OFFSET 0.000000 0.000000 3.100006
													CHANNELS 6 Xposition Yposition Zposition Zrotation Yrotation Xrotation
													End Site
													{
														OFFSET 0.000000 0.000000 0.100006
													}
												}
											}
										}
									}
									JOINT LeftHandIndex1
									{
										OFFSET 0.086761 -2.345276 10.030899
										CHANNELS 6 Xposition Yposition Zposition Zrotation Yrotation Xrotation
										JOINT LeftHandIndex2
										{
											OFFSET 0.000000 0.000000 4.061096
											CHANNELS 6 Xposition Yposition Zposition Zrotation Yrotation Xrotation
											JOINT LeftHandIndex3
											{
												OFFSET 0.000000 0.000000 3.248871
												CHANNELS 6 Xposition Yposition Zposition Zrotation Yrotation Xrotation
												JOINT LeftHandIndex4
												{
													OFFSET 0.000000 0.000000 2.639709
													CHANNELS 6 Xposition Yposition Zposition Zrotation Yrotation Xrotation
													End Site
													{
														OFFSET 0.000000 0.000000 0.100006
													}
												}
											}
										}
									}
									JOINT LeftHandMiddle1
									{
										OFFSET -0.104095 -0.006775 9.502945
										CHANNELS 6 Xposition Yposition Zposition Zrotation Yrotation Xrotation
										JOINT LeftHandMiddle2
										{
											OFFSET 0.000000 0.000000 4.568726
											CHANNELS 6 Xposition Yposition Zposition Zrotation Yrotation Xrotation
											JOINT LeftHandMiddle3
											{
												OFFSET 0.000000 0.000000 3.654984
												CHANNELS 6 Xposition Yposition Zposition Zrotation Yrotation Xrotation
												JOINT LeftHandMiddle4
												{
													OFFSET 0.000000 0.000000 2.741241
													CHANNELS 6 Xposition Yposition Zposition Zrotation Yrotation Xrotation
													End Site
													{
														OFFSET 0.000000 0.000000 0.100006
													}
												}
											}
										}
									}
									JOINT LeftHandRing1
									{
										OFFSET -0.086761 2.267456 8.921707
										CHANNELS 6 Xposition Yposition Zposition Zrotation Yrotation Xrotation
										JOINT LeftHandRing2
										{
											OFFSET 0.000000 0.000000 4.061096
											CHANNELS 6 Xposition Yposition Zposition Zrotation Yrotation Xrotation
											JOINT LeftHandRing3
											{
												OFFSET 0.000000 0.000000 3.654984
												CHANNELS 6 Xposition Yposition Zposition Zrotation Yrotation Xrotation
												JOINT LeftHandRing4
												{
													OFFSET 0.000000 0.000000 2.741241
													CHANNELS 6 Xposition Yposition Zposition Zrotation Yrotation Xrotation
													End Site
													{
														OFFSET 0.000000 0.000000 0.100006
													}
												}
											}
										}
									}
									JOINT LeftHandPinky1
									{
										OFFSET 0.173492 4.467224 7.976990
										CHANNELS 6 Xposition Yposition Zposition Zrotation Yrotation Xrotation
										JOINT LeftHandPinky2
										{
											OFFSET 0.000000 0.000000 3.350403
											CHANNELS 6 Xposition Yposition Zposition Zrotation Yrotation Xrotation
											JOINT LeftHandPinky3
											{
												OFFSET 0.000000 0.000000 2.842758
												CHANNELS 6 Xposition Yposition Zposition Zrotation Yrotation Xrotation
												JOINT LeftHandPinky4
												{
													OFFSET 0.000000 0.000000 2.639709
													CHANNELS 6 Xposition Yposition Zposition Zrotation Yrotation Xrotation
													End Site
													{
														OFFSET 0.000000 0.000000 0.100006
													}
												}
											}
										}
									}
									JOINT LeftForeArmEnd
									{
										OFFSET 0.000000 0.000000 0.000000
										CHANNELS 6 Xposition Yposition Zposition Zrotation Yrotation Xrotation
										End Site
										{
											OFFSET 0.000000 0.000000 0.100006
										}
									}
								}
								JOINT LeftArmEnd
								{
									OFFSET 0.000000 0.000000 0.000000
									CHANNELS 6 Xposition Yposition Zposition Zrotation Yrotation Xrotation
									End Site
									{
										OFFSET 0.000000 0.000000 0.100006
									}
								}
							}
						}
					}
				}
			}
		}
	}
	JOINT RightUpLeg
	{
		OFFSET -11.289948 0.000000 0.000000
		CHANNELS 6 Xposition Yposition Zposition Zrotation Yrotation Xrotation
		JOINT RightLeg
		{
			OFFSET 0.000000 0.000000 -38.200329
			CHANNELS 6 Xposition Yposition Zposition Zrotation Yrotation Xrotation
			JOINT RightFoot
			{
				OFFSET 0.000000 0.000000 -39.900856
				CHANNELS 6 Xposition Yposition Zposition Zrotation Yrotation Xrotation
				JOINT RightToeBase
				{
					OFFSET 0.000000 -15.261658 0.000001
					CHANNELS 6 Xposition Yposition Zposition Zrotation Yrotation Xrotation
					JOINT RightToeBaseEnd
					{
						OFFSET 0.000000 -7.370728 0.000001
						CHANNELS 6 Xposition Yposition Zposition Zrotation Yrotation Xrotation
						End Site
						{
							OFFSET 0.000000 0.000000 0.100000
						}
					}
				}
				JOINT RightLegEnd
				{
					OFFSET 0.000000 0.000000 0.000000
					CHANNELS 6 Xposition Yposition Zposition Zrotation Yrotation Xrotation
					End Site
					{
						OFFSET 0.000000 0.000000 0.100000
					}
				}
			}
			JOINT RightUpLegEnd
			{
				OFFSET 0.000000 0.000000 0.000000
				CHANNELS 6 Xposition Yposition Zposition Zrotation Yrotation Xrotation
				End Site
				{
					OFFSET 0.000000 0.000000 0.099998
				}
			}
		}
	}
	JOINT LeftUpLeg
	{
		OFFSET 11.315674 0.000000 0.000000
		CHANNELS 6 Xposition Yposition Zposition Zrotation Yrotation Xrotation
		JOINT LeftLeg
		{
			OFFSET 0.000000 0.000000 -38.200329
			CHANNELS 6 Xposition Yposition Zposition Zrotation Yrotation Xrotation
			JOINT LeftFoot
			{
				OFFSET 0.000000 0.000000 -39.900856
				CHANNELS 6 Xposition Yposition Zposition Zrotation Yrotation Xrotation
				JOINT LeftToeBase
				{
					OFFSET 0.000000 -15.261658 0.000001
					CHANNELS 6 Xposition Yposition Zposition Zrotation Yrotation Xrotation
					JOINT LeftToeBaseEnd
					{
						OFFSET 0.000000 -7.539978 0.000001
						CHANNELS 6 Xposition Yposition Zposition Zrotation Yrotation Xrotation
						End Site
						{
							OFFSET 0.000000 0.000000 0.100000
						}
					}
				}
				JOINT LeftLegEnd
				{
					OFFSET 0.000000 0.000000 0.000000
					CHANNELS 6 Xposition Yposition Zposition Zrotation Yrotation Xrotation
					End Site
					{
						OFFSET 0.000000 0.000000 0.100000
					}
				}
			}
			JOINT LeftUpLegEnd
			{
				OFFSET 0.000000 0.000000 0.000000
				CHANNELS 6 Xposition Yposition Zposition Zrotation Yrotation Xrotation
				End Site
				{
					OFFSET 0.000000 0.000000 0.099998
				}
			}
		}
	}
}
MOTION
Frames: 2
Frame Time: 0.016667
46.050446 -44.116943 88.965889 -26.028316 -0.346606 -0.595529 -0.000019 2.080064 8.814251 0.168469 1.843299 2.671591 0.000003 -0.000027 8.844149 0.082336 -0.370950 1.352449 -0.000016 -0.000010 11.682270 2.905707 -0.327306 2.137706 -0.000000 0.000011 11.746670 1.260397 -2.291327 1.713034 -0.000011 0.000006 17.658268 10.478612 10.529129 -0.948834 0.000016 0.000017 5.101542 7.469148 0.137565 -7.415617 -0.000003 -0.000018 5.101533 0.706718 1.386111 -14.876584 0.000004 0.000002 11.655105 -0.000000 -0.000002 -0.000001 -2.625431 -0.000006 11.175207 9.696450 -83.794311 0.012618 0.000000 0.000013 10.434711 -51.131438 -66.624725 50.016181 -0.000011 -0.000005 29.628485 -1.530503 -0.294796 8.332434 0.000000 -0.000038 22.857559 13.873544 8.001754 -16.341520 -2.867340 -2.944290 3.959564 32.936292 -12.199590 59.927984 -0.000013 -0.000016 3.350413 -1.805605 1.696600 -3.566023 -0.000007 0.000016 3.756539 -1.242647 1.190185 -2.470556 -0.000021 -0.000076 3.147335 0.000002 0.000002 0.000002 -0.086777 -2.345287 10.030930 14.924293 26.859495 16.121996 -0.000006 0.000006 4.061096 -1.017183 -0.126737 0.001402 0.000011 -0.000007 3.248867 -0.488638 0.070365 0.003158 -0.000025 0.000001 2.639692 0.000000 0.000001 -0.000001 0.104069 -0.006788 9.502983 9.424687 27.955884 12.318340 -0.000014 0.000020 4.568715 -0.929149 0.000004 -0.000615 0.000007 0.000004 3.654984 -0.372074 -0.000004 -0.001339 0.000006 -0.000001 2.741245 -0.000000 0.000001 -0.000000 0.086731 2.267471 8.921715 0.333325 28.705663 6.364923 -0.000007 -0.000004 4.061120 1.311729 0.000162 -0.172793 0.000021 0.000027 3.655003 0.271803 0.000020 -0.149160 0.000010 0.000002 2.741246 -0.000000 0.000003 -0.000001 -0.173523 4.467237 7.976995 -9.561876 26.998795 1.413102 -0.000004 0.000004 3.350425 2.137342 -0.000321 -0.000137 0.000008 -0.000010 2.842771 0.447593 -0.000004 -0.055707 0.000030 -0.000004 2.639709 0.000000 -0.000000 0.000000 -0.000033 -0.000012 0.000006 0.000000 0.000002 -0.000000 -0.000003 0.000001 -0.000013 -0.000000 0.000001 -0.000000 2.625378 0.000009 11.175213 -13.322596 83.375395 -0.054679 0.000069 0.000008 10.813637 77.632996 46.600776 62.942338 -0.000014 -0.000063 28.724707 -3.651215 0.604526 28.561278 0.644380 0.328842 25.716190 -14.956765 -9.505755 -21.583990 2.867332 -2.944260 3.959587 -32.811269 12.502521 59.373250 -0.000008 -0.000027 3.350433 2.430877 -2.236680 -4.766624 0.000016 -0.000089 3.756502 1.668260 -1.574610 -3.300231 0.000014 -0.000007 3.100010 0.000003 -0.000001 0.000003 0.086739 -2.345268 10.030914 3.881271 -31.306602 12.045277 -0.000009 0.000017 4.061097 -0.723946 -0.039556 0.000686 -0.000007 0.000019 3.248880 -0.210932 0.022041 -0.002142 0.000005 0.000005 2.639735 -0.000001 -0.000002 0.000000 -0.104107 -0.006783 9.502953 -1.666704 -29.663583 9.946494 -0.000009 -0.000015 4.568751 -0.643517 -0.055802 0.000746 0.000002 0.000012 3.654990 -0.240499 0.031178 0.000053 -0.000008 -0.000001 2.741252 0.000000 -0.000003 -0.000002 -0.086777 2.267430 8.921715 -10.396934 -27.337475 8.432146 -0.000010 0.000010 4.061086 1.475243 -0.000011 0.000006 0.000001 -0.000018 3.655007 0.370083 0.000003 -0.019189 0.000008 0.000007 2.741255 0.000000 -0.000000 0.000000 0.173492 4.467251 7.976997 -19.069320 -24.511374 5.959879 0.000041 -0.000028 3.350404 2.151264 0.000021 0.000637 0.000005 -0.000011 2.842771 0.439444 0.000010 0.167221 -0.000006 -0.000012 2.639708 0.000000 0.000000 -0.000000 -0.000005 0.000022 0.000027 0.000006 0.000001 -0.000001 0.000005 -0.000006 0.000007 0.000001 -0.000001 0.000000 -11.289956 0.000002 0.000010 17.521530 1.292087 -3.464883 0.000013 0.000035 -38.200333 -0.408111 0.136350 18.474497 -0.000006 -0.000001 -39.900841 0.871436 4.438606 14.585794 -0.000002 -15.261615 0.000013 -0.095202 0.486101 -23.269305 0.000032 -7.370662 0.000002 -0.000001 -0.000000 -0.000000 -0.000002 0.000056 0.000004 0.000001 0.000000 -0.000002 0.000011 -0.000002 0.000002 0.000000 0.000000 -0.000000 11.315639 0.000053 0.000006 10.908281 3.888188 3.130538 -0.000044 0.000116 -38.200321 0.341342 -0.031773 5.330981 -0.000006 -0.000021 -39.900848 -3.898074 -4.166570 19.583472 -0.000011 -15.261633 0.000017 -0.329849 0.362440 -24.037381 0.000005 -7.539927 0.000002 0.000002 -0.000000 -0.000000 0.000013 -0.000062 0.000003 0.000000 0.000000 -0.000001 -0.000009 0.000052 -0.000007 0.000002 0.000000 0.000002 
46.049652 -44.088074 88.902473 -26.878767 -0.382140 -0.788421 -0.000007 2.080075 8.814251 0.194714 1.962394 3.011912 0.000011 -0.000023 8.844143 0.092275 -0.348900 1.595149 0.000013 0.000006 11.682281 2.956492 -0.313933 2.113647 -0.000018 -0.000029 11.746689 1.272675 -2.235645 1.650382 -0.000004 0.000072 17.658274 10.096035 9.586143 -1.811788 0.000014 -0.000010 5.101506 7.436765 0.046746 -7.727063 0.000001 0.000026 5.101543 0.729725 1.333945 -15.435669 -0.000001 -0.000061 11.655087 -0.000000 0.000000 -0.000000 -2.625408 0.000000 11.175207 9.682485 -83.794468 0.018478 -0.000013 0.000014 10.434719 -51.722116 -67.694743 50.785438 -0.000001 -0.000019 29.628464 -2.062792 -0.393313 8.792652 -0.000006 -0.000019 22.857590 15.265705 11.609909 -15.575995 -2.867302 -2.944275 3.959572 33.000903 -12.049490 60.205809 0.000003 -0.000012 3.350398 -1.497322 1.421717 -2.967724 -0.000004 0.000029 3.756520 -1.031962 0.995581 -2.057028 -0.000007 -0.000008 3.147341 0.000000 -0.000002 0.000001 -0.086761 -2.345264 10.030899 15.073097 27.326909 16.456798 0.000014 -0.000012 4.061092 -1.017525 0.000002 -0.000849 0.000007 0.000003 3.248888 -0.488987 -0.000004 0.003743 0.000009 -0.000003 2.639707 0.000000 0.000001 0.000001 0.104099 -0.006765 9.502953 9.526366 28.336735 12.714391 0.000045 -0.000019 4.568736 -0.928906 -0.128335 0.001461 -0.000013 -0.000025 3.654995 -0.372052 0.071090 -0.001889 0.000003 0.000001 2.741252 0.000000 0.000002 0.000001 0.086765 2.267483 8.921707 0.330603 28.696753 6.655850 -0.000011 0.000017 4.061091 1.312271 0.000148 -0.174425 0.000013 -0.000002 3.655022 0.272847 0.000014 -0.150371 0.000007 -0.000002 2.741247 0.000001 0.000000 0.000000 -0.173500 4.467203 7.976993 -9.593180 26.681115 1.586760 0.000028 0.000012 3.350408 2.138649 -0.000275 -0.000137 0.000011 -0.000012 2.842778 0.447482 -0.000006 -0.055851 -0.000023 0.000003 2.639732 -0.000000 -0.000003 0.000001 0.000005 -0.000006 -0.000000 -0.000000 0.000000 -0.000000 0.000002 -0.000003 0.000000 0.000000 0.000000 -0.000000 2.625401 0.000058 11.175227 -13.183041 83.363811 -0.059905 0.000031 0.000002 10.813614 76.767576 47.452466 63.030837 0.000000 -0.000021 28.724751 -3.635012 0.566633 28.402935 0.644358 0.328804 25.716167 -14.609932 -10.552667 -21.644601 2.867332 -2.944275 3.959579 -32.811102 12.502619 59.373462 0.000011 -0.000016 3.350441 2.430882 -2.236651 -4.767081 0.000008 -0.000008 3.756497 1.668245 -1.574828 -3.299983 0.000003 0.000002 3.100033 -0.000002 0.000000 -0.000000 0.086761 -2.345289 10.030891 3.688453 -32.630416 12.612649 0.000002 0.000019 4.061123 -0.724996 0.000481 0.000174 -0.000026 -0.000003 3.248869 -0.211853 0.000001 -0.002076 -0.000001 0.000010 2.639725 -0.000001 0.000001 0.000001 -0.104095 -0.006767 9.502953 -1.879173 -30.753425 10.423853 -0.000009 0.000018 4.568729 -0.643606 0.000281 0.000115 0.000009 -0.000016 3.655002 -0.239370 -0.000002 0.000187 -0.000001 0.000012 2.741261 -0.000001 -0.000001 0.000001 -0.086765 2.267467 8.921715 -10.581379 -28.000222 8.723281 0.000011 0.000020 4.061124 1.475016 0.000010 0.000006 -0.000011 0.000003 3.654983 0.369914 -0.000005 -0.019145 -0.000009 0.000006 2.741262 -0.000000 -0.000004 0.000001 0.173492 4.467196 7.976986 -19.161978 -24.801672 5.914422 -0.000014 0.000014 3.350404 2.152613 0.000015 0.000632 0.000003 -0.000005 2.842758 0.439185 0.000007 0.166311 -0.000011 -0.000015 2.639696 0.000001 0.000000 -0.000001 0.000011 -0.000005 0.000023 0.000000 0.000001 0.000000 0.000001 -0.000002 0.000014 0.000000 -0.000000 0.000000 -11.289952 -0.000005 0.000007 17.863617 1.232114 -3.845340 0.000014 0.000029 -38.200333 -0.343776 0.122154 19.560618 0.000002 0.000004 -39.900818 -1.094952 4.278426 13.910811 0.000001 -15.261647 -0.000007 -0.156825 0.571428 -23.288155 0.000002 -7.370662 0.000001 -0.000001 0.000000 0.000000 0.000010 0.000063 -0.000001 -0.000000 -0.000000 -0.000003 -0.000000 0.000002 0.000003 -0.000000 0.000000 0.000002 11.315692 0.000045 -0.000004 11.279586 3.901367 3.091521 -0.000027 0.000104 -38.200329 0.340968 -0.035181 5.941058 0.000006 -0.000010 -39.900864 -3.337419 -4.165906 19.077285 -0.000012 -15.261639 -0.000000 -0.312733 0.353024 -24.033918 0.000007 -7.539928 0.000003 0.000002 -0.000000 0.000000 -0.000004 -0.000065 0.000001 0.000000 0.000001 0.000002 -0.000004 0.000104 0.000001 0.000003 -0.000000 0.000000 
